<svg width="150" height="150" viewBox="0 0 150 150" fill="none" xmlns="http://www.w3.org/2000/svg">
<circle cx="75" cy="75" r="73.5" fill="#B4C4C3" stroke="#899E8F" stroke-width="3"/>
<path d="M125.986 95C125.457 113.315 110.443 128 92 128H59C40.5568 128 25.5434 113.315 25.0144 95H125.986Z" fill="#203526" stroke="#899E8F" stroke-width="2"/>
<path d="M37.7422 49.5625L44.5781 60.4609L51.4141 49.5625H55.8086L46.8242 63.6445L56.0234 78H51.5898L44.5781 66.8867L37.5664 78H33.1328L42.332 63.6445L33.3477 49.5625H37.7422Z" fill="#203526"/>
<path d="M100.742 49.5625L107.578 60.4609L114.414 49.5625H118.809L109.824 63.6445L119.023 78H114.59L107.578 66.8867L100.566 78H96.1328L105.332 63.6445L96.3477 49.5625H100.742Z" fill="#203526"/>
</svg>

